<svg width="18" height="18" viewBox="0 0 18 18" fill="none" xmlns="http://www.w3.org/2000/svg">
<g clip-path="url(#clip0_24_4261)">
<path d="M3.89112 13.8196C3.9313 13.8196 3.97148 13.8156 4.01166 13.8095L7.39067 13.2169C7.43085 13.2089 7.46902 13.1908 7.49715 13.1607L16.013 4.64481C16.0316 4.62623 16.0464 4.60415 16.0565 4.57985C16.0666 4.55555 16.0717 4.5295 16.0717 4.50319C16.0717 4.47687 16.0666 4.45082 16.0565 4.42652C16.0464 4.40222 16.0316 4.38014 16.013 4.36156L12.6742 1.02071C12.636 0.982537 12.5858 0.962448 12.5315 0.962448C12.4773 0.962448 12.4271 0.982537 12.3889 1.02071L3.87304 9.53656C3.84291 9.56669 3.82483 9.60285 3.81679 9.64303L3.22416 13.022C3.20461 13.1297 3.2116 13.2404 3.2445 13.3447C3.2774 13.4491 3.33524 13.5438 3.413 13.6207C3.54558 13.7493 3.71233 13.8196 3.89112 13.8196ZM5.24514 10.316L12.5315 3.03164L14.0041 4.50419L6.71768 11.7886L4.93175 12.104L5.24514 10.316ZM16.3927 15.5071H1.60697C1.25139 15.5071 0.964111 15.7944 0.964111 16.1499V16.8732C0.964111 16.9616 1.03643 17.0339 1.12483 17.0339H16.8748C16.9632 17.0339 17.0355 16.9616 17.0355 16.8732V16.1499C17.0355 15.7944 16.7483 15.5071 16.3927 15.5071Z" fill="white"/>
</g>
<defs>
<clipPath id="clip0_24_4261">
<rect width="18" height="18" fill="white"/>
</clipPath>
</defs>
</svg>
